<svg width="34" height="35" viewBox="0 0 34 35" fill="none" xmlns="http://www.w3.org/2000/svg">
<ellipse cx="17" cy="17.5" rx="17" ry="17.5" fill="white" fill-opacity="0.47"/>
<path d="M24.9999 17.5C24.9999 12.8145 21.1855 9 16.5 9C11.8144 9 8 12.8144 8 17.5V25.468C8 25.761 8.239 26 8.53198 26H16.5C21.1855 26 25 22.1856 25 17.5L24.9999 17.5ZM12.2507 15.9058C13.1276 15.9058 13.8449 16.623 13.8449 17.5C13.8449 18.3768 13.1276 19.0942 12.2507 19.0942C11.3738 19.0942 10.6565 18.3769 10.6565 17.5C10.6565 16.6231 11.3738 15.9058 12.2507 15.9058ZM22.3434 17.5C22.3434 18.3768 21.6261 19.0942 20.7492 19.0942C19.8723 19.0942 19.155 18.3769 19.155 17.5C19.155 16.6231 19.8723 15.9058 20.7492 15.9058C21.6261 15.9058 22.3434 16.623 22.3434 17.5ZM18.0942 17.5C18.0942 18.3768 17.377 19.0942 16.5 19.0942C15.6231 19.0942 14.9058 18.3769 14.9058 17.5C14.9058 16.6231 15.6231 15.9058 16.5 15.9058C17.3769 15.9058 18.0942 16.623 18.0942 17.5Z" fill="black"/>
</svg>
