<svg width="34" height="35" viewBox="0 0 34 35" fill="none" xmlns="http://www.w3.org/2000/svg">
<ellipse cx="17" cy="17.5" rx="17" ry="17.5" fill="white" fill-opacity="0.47"/>
<path fill-rule="evenodd" clip-rule="evenodd" d="M23.4362 6.11596C23.3962 5.96135 23.2088 5.96135 23.1688 6.11596C22.762 7.68248 21.7085 8.90718 20.3608 9.37995C20.2278 9.42645 20.2278 9.64438 20.3608 9.69088C21.7085 10.1637 22.762 11.3884 23.1688 12.9549C23.2088 13.1095 23.3962 13.1095 23.4362 12.9549C23.8429 11.3884 24.8965 10.1637 26.2441 9.69088C26.3772 9.64438 26.3772 9.42645 26.2441 9.37995C24.8965 8.90718 23.8429 7.68248 23.4362 6.11596ZM16.4094 8.65081C13.9606 8.65081 11.975 10.958 11.975 13.8046V18.397C11.975 21.2435 13.9606 23.5516 16.4094 23.5516C18.8581 23.5516 20.8438 21.2435 20.8438 18.397V13.8046C20.8438 10.9581 18.8581 8.65081 16.4094 8.65081ZM14.7163 14.9142C14.9831 14.9142 15.2001 15.1655 15.2001 15.4766V17.1634C15.2001 17.4735 14.9832 17.7257 14.7163 17.7257C14.4496 17.7257 14.2326 17.4736 14.2326 17.1634V15.4766C14.2326 15.1657 14.4494 14.9142 14.7163 14.9142ZM16.8931 14.0708C16.8931 13.7599 16.6763 13.5085 16.4094 13.5085C16.1426 13.5085 15.9256 13.7597 15.9256 14.0708V18.5692C15.9256 18.8793 16.1425 19.1315 16.4094 19.1315C16.6761 19.1315 16.8931 18.8795 16.8931 18.5692V14.0708ZM18.1025 15.4766C18.3692 15.4766 18.5862 15.7278 18.5862 16.0389V16.6013C18.5862 16.9113 18.3694 17.1636 18.1025 17.1636C17.8357 17.1636 17.6187 16.9115 17.6187 16.6013V16.0389C17.6187 15.728 17.8356 15.4766 18.1025 15.4766ZM10.9675 18.1098C10.9675 17.7997 10.7514 17.5474 10.4838 17.5474C10.217 17.5474 10 17.7995 10 18.1098V18.397C10 22.3225 12.6121 25.539 15.9256 25.8263V27.4377C15.9256 27.7477 16.1425 28 16.4094 28C16.6769 28 16.8931 27.7479 16.8931 27.4377V25.8263C20.2067 25.5391 22.8188 22.3226 22.8188 18.397V18.1098C22.8188 17.7997 22.6027 17.5474 22.335 17.5474C22.0683 17.5474 21.8512 17.7995 21.8512 18.1098V18.397C21.8512 21.8903 19.4145 24.7228 16.4093 24.7228C13.4042 24.7228 10.9674 21.8903 10.9674 18.397L10.9675 18.1098ZM25.412 13.1677C25.4324 13.0903 25.5261 13.0903 25.5465 13.1677C25.749 13.9505 26.2766 14.5638 26.9501 14.7993C27.0166 14.823 27.0166 14.9319 26.9501 14.9556C26.2766 15.191 25.749 15.8043 25.5465 16.5872C25.5261 16.6646 25.4324 16.6646 25.412 16.5872C25.2095 15.8044 24.6819 15.1911 24.0084 14.9556C23.9418 14.9319 23.9418 14.823 24.0084 14.7993C24.6818 14.5639 25.2094 13.9506 25.412 13.1677Z" fill="black"/>
<path fill-rule="evenodd" clip-rule="evenodd" d="M23.4362 6.11596C23.3962 5.96135 23.2088 5.96135 23.1688 6.11596C22.762 7.68248 21.7085 8.90718 20.3608 9.37995C20.2278 9.42645 20.2278 9.64438 20.3608 9.69088C21.7085 10.1637 22.762 11.3884 23.1688 12.9549C23.2088 13.1095 23.3962 13.1095 23.4362 12.9549C23.8429 11.3884 24.8965 10.1637 26.2441 9.69088C26.3772 9.64438 26.3772 9.42645 26.2441 9.37995C24.8965 8.90718 23.8429 7.68248 23.4362 6.11596ZM16.4094 8.65081C13.9606 8.65081 11.975 10.958 11.975 13.8046V18.397C11.975 21.2435 13.9606 23.5516 16.4094 23.5516C18.8581 23.5516 20.8438 21.2435 20.8438 18.397V13.8046C20.8438 10.9581 18.8581 8.65081 16.4094 8.65081ZM14.7163 14.9142C14.9831 14.9142 15.2001 15.1655 15.2001 15.4766V17.1634C15.2001 17.4735 14.9832 17.7257 14.7163 17.7257C14.4496 17.7257 14.2326 17.4736 14.2326 17.1634V15.4766C14.2326 15.1657 14.4494 14.9142 14.7163 14.9142ZM16.8931 14.0708C16.8931 13.7599 16.6763 13.5085 16.4094 13.5085C16.1426 13.5085 15.9256 13.7597 15.9256 14.0708V18.5692C15.9256 18.8793 16.1425 19.1315 16.4094 19.1315C16.6761 19.1315 16.8931 18.8795 16.8931 18.5692V14.0708ZM18.1025 15.4766C18.3692 15.4766 18.5862 15.7278 18.5862 16.0389V16.6013C18.5862 16.9113 18.3694 17.1636 18.1025 17.1636C17.8357 17.1636 17.6187 16.9115 17.6187 16.6013V16.0389C17.6187 15.728 17.8356 15.4766 18.1025 15.4766ZM10.9675 18.1098C10.9675 17.7997 10.7514 17.5474 10.4838 17.5474C10.217 17.5474 10 17.7995 10 18.1098V18.397C10 22.3225 12.6121 25.539 15.9256 25.8263V27.4377C15.9256 27.7477 16.1425 28 16.4094 28C16.6769 28 16.8931 27.7479 16.8931 27.4377V25.8263C20.2067 25.5391 22.8188 22.3226 22.8188 18.397V18.1098C22.8188 17.7997 22.6027 17.5474 22.335 17.5474C22.0683 17.5474 21.8512 17.7995 21.8512 18.1098V18.397C21.8512 21.8903 19.4145 24.7228 16.4093 24.7228C13.4042 24.7228 10.9674 21.8903 10.9674 18.397L10.9675 18.1098ZM25.412 13.1677C25.4324 13.0903 25.5261 13.0903 25.5465 13.1677C25.749 13.9505 26.2766 14.5638 26.9501 14.7993C27.0166 14.823 27.0166 14.9319 26.9501 14.9556C26.2766 15.191 25.749 15.8043 25.5465 16.5872C25.5261 16.6646 25.4324 16.6646 25.412 16.5872C25.2095 15.8044 24.6819 15.1911 24.0084 14.9556C23.9418 14.9319 23.9418 14.823 24.0084 14.7993C24.6818 14.5639 25.2094 13.9506 25.412 13.1677Z" fill="black"/>
</svg>
