<svg width="34" height="35" viewBox="0 0 34 35" fill="none" xmlns="http://www.w3.org/2000/svg">
<ellipse cx="17" cy="17.5" rx="17" ry="17.5" fill="white" fill-opacity="0.47"/>
<path d="M20.3211 13.2241C20.0188 13.0469 19.7236 12.9573 19.4903 12.9573C19.2583 12.9573 19.0886 13.0469 19.0372 13.2241C18.9323 13.5788 19.3401 14.1536 19.9454 14.5084C20.2484 14.6862 20.5433 14.7748 20.7759 14.7748C21.0079 14.7748 21.1777 14.6862 21.2304 14.5084C21.3342 14.1536 20.9271 13.5788 20.3211 13.2241Z" fill="black" stroke="black"/>
<path d="M15.5295 22.9591C15.3114 22.881 15.004 22.8655 14.6584 22.9307C13.9686 23.063 13.3924 23.4687 13.3711 23.8377C13.3603 24.022 13.4908 24.163 13.7099 24.2404C13.9287 24.3185 14.2364 24.3334 14.581 24.2678C15.2712 24.1366 15.8477 23.7311 15.869 23.3612C15.8798 23.1769 15.7493 23.0362 15.5295 22.9591Z" fill="black" stroke="black"/>
<path d="M18.8677 22.2081C18.6493 22.1307 18.3409 22.1144 17.9967 22.1804C17.3072 22.3119 16.7313 22.7167 16.71 23.0866C16.6999 23.2713 16.83 23.4116 17.0488 23.4894C17.2676 23.5671 17.5757 23.5824 17.9199 23.5174C18.6108 23.3856 19.1853 22.9804 19.2073 22.6108C19.2167 22.4262 19.0869 22.2862 18.8677 22.2081Z" fill="black" stroke="black"/>
<path d="M22.068 21.5541C21.8499 21.4767 21.5412 21.4611 21.1963 21.5267C20.5075 21.6583 19.9309 22.0634 19.9103 22.4333C19.9001 22.6176 20.03 22.7583 20.2491 22.8361C20.4676 22.9138 20.776 22.929 21.1209 22.8634C21.811 22.7319 22.3862 22.3268 22.4075 21.9575C22.4177 21.7726 22.2872 21.6322 22.068 21.5541Z" fill="black" stroke="black"/>
<path d="M12.9088 15.5658C12.7262 15.7091 12.5487 15.9614 12.4188 16.2881C12.1612 16.9414 12.1957 17.6441 12.4956 17.8595C12.6464 17.967 12.8351 17.9328 13.0177 17.7895C13.2013 17.6461 13.3789 17.3938 13.508 17.0675C13.7657 16.4145 13.7315 15.7108 13.4313 15.4954C13.2808 15.3879 13.0918 15.422 12.9088 15.5658Z" fill="black" stroke="black"/>
<path d="M9.18913 14.4333C9.00551 14.5767 8.82798 14.8283 8.69881 15.1549C8.44046 15.8079 8.47461 16.5116 8.77624 16.7263C8.92571 16.8342 9.1144 16.7993 9.29801 16.656C9.48062 16.5126 9.65815 16.2607 9.78732 15.934C10.0457 15.2814 10.0112 14.5777 9.71056 14.3619C9.56042 14.2547 9.37173 14.2892 9.18913 14.4333Z" fill="black" stroke="black"/>
<path d="M26.5404 18.7589L24.3238 12.0743C23.9891 11.0646 22.9361 10.0106 21.9257 9.67582L15.2404 7.45922C14.8231 7.32092 14.4481 7.3216 14.1593 7.45787C13.8468 7.54275 13.4898 7.67733 13.1239 7.84776C12.6237 8.08075 12.007 8.43479 11.7452 8.74285C11.7158 8.7681 11.6873 8.79438 11.6597 8.82164L7.1761 13.3062C6.47917 14.0028 6.16908 15.3284 6.47038 16.3242L8.41882 22.7776C8.45432 22.8956 8.49828 23.0068 8.54968 23.1086C8.70658 23.5861 9.34975 24.2553 9.54723 24.4528C9.74539 24.6506 10.4156 25.2954 10.8931 25.452C10.9945 25.5024 11.1058 25.5464 11.2231 25.5819L17.6761 27.5303C17.9263 27.6064 18.2012 27.6446 18.4937 27.6446C19.332 27.6446 20.1957 27.3227 20.6934 26.8249L25.178 22.34C25.2064 22.3116 25.2321 22.2832 25.2571 22.2544C25.5655 21.9917 25.9196 21.3749 26.1519 20.8765C26.3233 20.5089 26.4579 20.1508 26.5428 19.838C26.6794 19.5475 26.6787 19.1755 26.5404 18.7589ZM9.5709 23.508C9.32507 23.209 9.19488 22.9875 9.16884 22.8956L9.14382 22.8333C9.10352 22.755 9.07069 22.673 9.04575 22.5885L7.09664 16.1349C6.86703 15.3757 7.11524 14.2923 7.6387 13.7692L12.1233 9.28424C12.1463 9.2609 12.1706 9.24061 12.194 9.22032L12.2372 9.17501C12.3137 9.0783 12.5209 8.92072 12.8185 8.74556C13.1022 8.83517 13.3437 9.10299 13.4745 9.53785L15.423 15.9915C15.6881 16.8683 15.4088 18.0742 14.7991 18.6839L10.3152 23.1685C10.071 23.4123 9.81201 23.5181 9.5709 23.508ZM24.824 21.7631L24.7776 21.8081C24.7577 21.8311 24.7381 21.8544 24.7147 21.8774L20.2308 26.3623C19.8555 26.7377 19.1572 26.9896 18.4941 26.9896C18.2815 26.9919 18.0693 26.9629 17.8651 26.9037L11.4121 24.9553C11.3277 24.9301 11.2457 24.8971 11.1673 24.8569L11.1048 24.8325C11.0131 24.8068 10.7916 24.6759 10.4927 24.4301C10.4822 24.1887 10.5874 23.93 10.8319 23.6855L15.3154 19.2012C15.9255 18.5912 17.1307 18.3119 18.0078 18.577L24.4608 20.5258C24.8963 20.6573 25.1642 20.8991 25.2534 21.1828C25.0789 21.4797 24.9207 21.6863 24.824 21.7631ZM25.9446 19.5719L25.9189 19.6395C25.8871 19.7602 25.8435 19.8941 25.7931 20.0328C25.6115 20.0676 25.3883 20.0487 25.1297 19.9628L18.4447 17.7462C17.5358 17.4452 16.5544 16.4639 16.2542 15.5553L14.0376 8.87034C13.952 8.61165 13.9327 8.38881 13.9676 8.20688C14.1055 8.15717 14.2384 8.11355 14.3588 8.08176L14.4275 8.05505C14.486 8.02462 14.5614 8.00906 14.6517 8.00906C14.7639 8.00906 14.8928 8.03307 15.0351 8.08007L21.7201 10.2967C22.5276 10.5645 23.4352 11.4728 23.7027 12.2799L25.9196 18.9645C26.0034 19.2195 26.0129 19.4403 25.9446 19.5719Z" fill="black" stroke="black"/>
</svg>
