<svg width="67" height="36" viewBox="0 0 67 36" fill="none" xmlns="http://www.w3.org/2000/svg">
<rect x="0.5" y="0.5" width="66" height="35" rx="17.5" stroke="url(#paint0_linear_26_126)"/>
<path d="M17.1186 23V12.8182H23.4325V14.1406H18.6548V17.2429H22.9801V18.5604H18.6548V23H17.1186ZM25.2024 23V15.3636H26.6889V23H25.2024ZM25.9531 14.1854C25.6946 14.1854 25.4725 14.0992 25.2869 13.9268C25.1046 13.7512 25.0135 13.5424 25.0135 13.3004C25.0135 13.0552 25.1046 12.8464 25.2869 12.674C25.4725 12.4983 25.6946 12.4105 25.9531 12.4105C26.2116 12.4105 26.4321 12.4983 26.6143 12.674C26.8 12.8464 26.8928 13.0552 26.8928 13.3004C26.8928 13.5424 26.8 13.7512 26.6143 13.9268C26.4321 14.0992 26.2116 14.1854 25.9531 14.1854ZM30.1752 18.4659V23H28.6887V15.3636H30.1156V16.6065H30.21C30.3857 16.2022 30.6608 15.8774 31.0353 15.6321C31.4132 15.3868 31.8888 15.2642 32.4622 15.2642C32.9825 15.2642 33.4383 15.3736 33.8294 15.5923C34.2205 15.8078 34.5237 16.1293 34.7392 16.5568C34.9546 16.9844 35.0623 17.513 35.0623 18.1428V23H33.5758V18.3217C33.5758 17.7682 33.4316 17.3357 33.1433 17.0241C32.8549 16.7093 32.4589 16.5518 31.9551 16.5518C31.6104 16.5518 31.3038 16.6264 31.0353 16.7756C30.7702 16.9247 30.5597 17.1435 30.4039 17.4318C30.2515 17.7169 30.1752 18.0616 30.1752 18.4659ZM38.5424 12.8182V23H37.0559V12.8182H38.5424ZM40.5423 23V15.3636H42.0288V23H40.5423ZM41.293 14.1854C41.0344 14.1854 40.8124 14.0992 40.6268 13.9268C40.4445 13.7512 40.3533 13.5424 40.3533 13.3004C40.3533 13.0552 40.4445 12.8464 40.6268 12.674C40.8124 12.4983 41.0344 12.4105 41.293 12.4105C41.5515 12.4105 41.7719 12.4983 41.9542 12.674C42.1398 12.8464 42.2326 13.0552 42.2326 13.3004C42.2326 13.5424 42.1398 13.7512 41.9542 13.9268C41.7719 14.0992 41.5515 14.1854 41.293 14.1854ZM45.2019 15.3636L46.8873 18.3366L48.5875 15.3636H50.2132L47.8319 19.1818L50.2331 23H48.6074L46.8873 20.1463L45.1721 23H43.5414L45.9178 19.1818L43.5712 15.3636H45.2019Z" fill="white"/>
<defs>
<linearGradient id="paint0_linear_26_126" x1="33.5" y1="0" x2="33.5" y2="36" gradientUnits="userSpaceOnUse">
<stop stop-color="#C736D9"/>
<stop offset="0.5" stop-color="#BCD8FA"/>
<stop offset="0.75" stop-color="#E9E9EB"/>
<stop offset="1" stop-color="#9AED66"/>
</linearGradient>
</defs>
</svg>
