<svg width="34" height="37" viewBox="0 0 34 37" fill="none" xmlns="http://www.w3.org/2000/svg">
<path d="M17 1.54166C15.8728 1.54166 14.7918 2.02893 13.9948 2.89629C13.1978 3.76364 12.75 4.94003 12.75 6.16666V18.5C12.75 19.7266 13.1978 20.903 13.9948 21.7704C14.7918 22.6377 15.8728 23.125 17 23.125C18.1272 23.125 19.2082 22.6377 20.0052 21.7704C20.8022 20.903 21.25 19.7266 21.25 18.5V6.16666C21.25 4.94003 20.8022 3.76364 20.0052 2.89629C19.2082 2.02893 18.1272 1.54166 17 1.54166Z" stroke="white" stroke-width="2" stroke-linecap="round" stroke-linejoin="round"/>
<path d="M26.9166 15.4167V18.5C26.9166 21.3621 25.8719 24.107 24.0121 26.1308C22.1524 28.1547 19.63 29.2917 17 29.2917C14.3699 29.2917 11.8476 28.1547 9.98784 26.1308C8.1281 24.107 7.08331 21.3621 7.08331 18.5V15.4167" stroke="white" stroke-width="2" stroke-linecap="round" stroke-linejoin="round"/>
<path d="M17 29.2917V35.4583" stroke="white" stroke-width="2" stroke-linecap="round" stroke-linejoin="round"/>
<path d="M11.3333 35.4583H22.6666" stroke="white" stroke-width="2" stroke-linecap="round" stroke-linejoin="round"/>
</svg>
